<?xml version="1.0" encoding="utf-8"?>
<!-- Svg Vector Icons : http://www.onlinewebfonts.com/icon -->
<!DOCTYPE svg PUBLIC "-//W3C//DTD SVG 1.1//EN" "http://www.w3.org/Graphics/SVG/1.1/DTD/svg11.dtd">
<svg version="1.1" xmlns="http://www.w3.org/2000/svg" xmlns:xlink="http://www.w3.org/1999/xlink" x="0px" y="0px" viewBox="0 0 1000 1000" enable-background="new 0 0 1000 1000" xml:space="preserve">
<metadata> Svg Vector Icons : http://www.onlinewebfonts.com/icon </metadata>
<g><path d="M625.7,554.6c95.1-46.6,160.5-144.5,160.5-257.8C786.2,138.4,658.1,10,500,10c-158.1,0-286.2,128.4-286.2,286.8c0,113.2,65.5,211.1,160.6,257.8C198.6,608.4,70.7,772.3,70.7,966.1c0,13.2,10.7,23.9,23.9,23.9c13.2,0,23.8-10.7,23.8-23.9c0-211.2,170.8-382.5,381.6-382.5c210.7,0,381.6,171.2,381.6,382.5c0,13.2,10.7,23.9,23.8,23.9c13.2,0,23.9-10.7,23.9-23.9C929.3,772.3,801.4,608.4,625.7,554.6L625.7,554.6z M261.3,296.8c0-132.1,106.9-239.3,238.7-239.3c131.8,0,238.7,107.1,238.7,239.3c0,132.1-106.9,239.3-238.7,239.3C368.2,536.1,261.3,429,261.3,296.8L261.3,296.8z" fill="#fff"/></g>
</svg>